<svg xmlns="http://www.w3.org/2000/svg" xmlns:xlink="http://www.w3.org/1999/xlink" width="1080" zoomAndPan="magnify" viewBox="0 0 810 809.999993" height="1080" preserveAspectRatio="xMidYMid meet" version="1.0"><path fill="#ffc716" d="M 591.800781 773.023438 C 564.101562 760.164062 536.40625 748.289062 506.726562 735.429688 C 474.082031 721.578125 441.4375 706.738281 406.8125 690.910156 C 372.1875 706.738281 339.542969 720.589844 307.886719 734.441406 C 278.210938 747.300781 249.523438 760.164062 221.824219 773.023438 L 143.671875 808.640625 L 149.609375 722.570312 C 153.566406 660.242188 160.488281 590.992188 169.394531 522.726562 C 121.910156 475.242188 76.402344 421.816406 30.898438 365.425781 L -16.585938 306.070312 L 57.605469 285.292969 C 107.070312 271.441406 176.316406 256.601562 257.4375 242.753906 C 295.027344 172.511719 332.617188 108.207031 364.273438 62.699219 L 406.8125 1.359375 L 449.351562 62.699219 C 481.007812 108.207031 518.597656 172.511719 556.1875 242.753906 C 637.308594 256.601562 705.566406 271.441406 756.019531 285.292969 L 830.210938 306.070312 L 781.738281 366.417969 C 737.222656 422.808594 690.726562 476.230469 645.222656 523.71875 C 654.125 591.980469 661.050781 661.230469 665.007812 723.558594 L 670.941406 809.628906 Z M 591.800781 773.023438 " fill-opacity="1" fill-rule="nonzero"/></svg>