<svg xmlns="http://www.w3.org/2000/svg" xmlns:xlink="http://www.w3.org/1999/xlink" width="1080" zoomAndPan="magnify" viewBox="0 0 810 809.999993" height="1080" preserveAspectRatio="xMidYMid meet" version="1.0"><path fill="#ffc716" d="M 398.890625 663.210938 C 352.394531 684.976562 308.867188 703.773438 266.328125 722.570312 C 232.695312 737.410156 200.050781 751.257812 168.394531 765.109375 L 163.449219 767.085938 L 163.449219 761.152344 C 169.382812 680.027344 177.296875 597.914062 189.167969 514.8125 C 132.78125 456.445312 76.394531 393.128906 20.996094 323.875 L 18.027344 319.917969 L 22.976562 318.929688 C 83.320312 302.113281 167.40625 284.304688 267.320312 267.484375 C 311.835938 180.425781 357.339844 103.261719 395.921875 47.859375 L 398.890625 43.902344 Z M 398.890625 663.210938 " fill-opacity="1" fill-rule="nonzero"/><path fill="#ffc716" d="M 822.289062 307.058594 L 780.738281 295.1875 C 723.363281 279.355469 642.246094 261.550781 546.289062 245.722656 C 502.761719 162.617188 459.234375 88.421875 422.632812 34.996094 L 398.890625 0.371094 L 375.148438 34.996094 C 338.542969 88.421875 294.027344 162.617188 251.492188 245.722656 C 155.535156 261.550781 75.40625 279.355469 17.039062 295.1875 L -24.511719 307.058594 L 2.199219 340.695312 C 54.628906 406.976562 109.039062 469.304688 163.449219 524.707031 C 152.566406 604.839844 144.652344 685.964844 139.707031 760.164062 L 136.738281 808.636719 L 181.253906 788.851562 C 212.910156 774.011719 244.566406 760.164062 278.199219 746.3125 C 317.769531 729.492188 357.339844 711.6875 399.878906 691.898438 C 442.414062 711.6875 482.976562 729.492188 521.554688 746.3125 C 555.191406 761.152344 587.835938 775.003906 618.503906 788.851562 L 663.019531 808.636719 L 660.050781 760.164062 C 655.105469 685.964844 646.203125 604.839844 636.308594 524.707031 C 690.71875 468.316406 744.136719 406.980469 797.554688 340.695312 Z M 596.738281 507.886719 L 593.773438 510.855469 L 594.761719 515.800781 C 605.644531 593.957031 613.558594 673.101562 619.492188 746.3125 C 592.78125 734.441406 565.082031 722.570312 537.382812 709.707031 C 494.847656 690.910156 450.332031 672.113281 403.835938 650.347656 L 399.878906 648.371094 L 395.921875 650.347656 C 349.425781 672.113281 304.910156 690.910156 262.375 709.707031 C 233.683594 721.578125 206.976562 733.449219 180.265625 746.3125 C 186.203125 670.136719 194.113281 592.96875 204.996094 515.800781 L 205.984375 510.855469 L 203.019531 506.898438 C 149.597656 452.488281 96.179688 392.136719 44.738281 326.84375 C 103.105469 311.015625 182.246094 295.1875 274.246094 279.355469 L 279.191406 278.367188 L 281.167969 274.410156 C 322.71875 194.277344 365.253906 121.066406 400.867188 66.65625 C 437.472656 120.078125 479.019531 193.289062 520.566406 274.410156 L 522.546875 278.367188 L 527.492188 279.355469 C 619.492188 295.1875 698.632812 311.015625 757 326.84375 C 703.578125 393.128906 651.148438 453.476562 596.738281 507.886719 Z M 596.738281 507.886719 " fill-opacity="1" fill-rule="nonzero"/></svg>