<svg xmlns="http://www.w3.org/2000/svg" xmlns:xlink="http://www.w3.org/1999/xlink" width="1080" zoomAndPan="magnify" viewBox="0 0 810 809.999993" height="1080" preserveAspectRatio="xMidYMid meet" version="1.0"><path fill="#ffc716" d="M 829.019531 307.339844 L 787.433594 295.457031 C 730.003906 279.613281 648.8125 261.792969 552.769531 245.945312 C 509.203125 162.769531 465.636719 88.5 429 35.027344 L 405.234375 0.371094 L 381.472656 35.027344 C 344.835938 88.5 300.28125 162.765625 257.703125 245.945312 C 161.660156 261.792969 81.457031 279.613281 23.039062 295.457031 L -18.546875 307.339844 L 8.1875 341.007812 C 60.664062 407.355469 115.121094 469.738281 169.582031 525.191406 C 158.6875 605.402344 150.769531 686.601562 145.816406 760.867188 L 142.847656 809.390625 L 187.402344 789.585938 C 219.089844 774.730469 250.773438 760.867188 284.4375 747.003906 C 324.042969 730.171875 363.648438 712.347656 406.226562 692.542969 C 448.800781 712.347656 489.398438 730.171875 528.015625 747.003906 C 561.679688 761.859375 594.355469 775.722656 625.050781 789.585938 L 669.605469 809.390625 L 666.636719 760.867188 C 661.683594 686.601562 652.773438 605.402344 642.871094 525.191406 C 697.332031 468.75 750.796875 407.355469 804.265625 341.007812 Z M 603.265625 508.359375 L 600.296875 511.328125 L 601.285156 516.28125 C 612.179688 594.507812 620.097656 673.726562 626.039062 747.003906 C 599.304688 735.121094 571.582031 723.238281 543.859375 710.367188 C 501.28125 691.550781 456.726562 672.738281 410.1875 650.953125 L 406.226562 648.972656 L 402.265625 650.953125 C 355.730469 672.738281 311.171875 691.550781 268.597656 710.367188 C 239.882812 722.25 213.148438 734.132812 186.414062 747.003906 C 192.355469 670.757812 200.277344 593.519531 211.167969 516.28125 L 212.15625 511.328125 L 209.1875 507.367188 C 155.71875 452.90625 102.25 392.5 50.765625 327.144531 C 109.183594 311.300781 188.394531 295.457031 280.480469 279.613281 L 285.429688 278.625 L 287.410156 274.664062 C 328.996094 194.453125 371.574219 121.175781 407.21875 66.714844 C 443.855469 120.1875 485.441406 193.464844 527.027344 274.664062 L 529.007812 278.625 L 533.957031 279.613281 C 626.042969 295.457031 705.253906 311.300781 763.671875 327.144531 C 710.203125 393.492188 657.726562 453.894531 603.265625 508.359375 Z M 603.265625 508.359375 " fill-opacity="1" fill-rule="nonzero"/></svg>